<svg width="351" height="263" viewBox="0 0 351 263" fill="none" xmlns="http://www.w3.org/2000/svg">
<path d="M69.0332 1C92.3684 1 111.166 9.44029 125.427 26.3209C139.687 42.5522 146.817 64.6269 146.817 92.5448C146.817 128.254 136.446 161.69 115.704 192.854C94.9612 224.019 69.3573 247.067 38.892 262L29.169 245.444C42.133 235.056 53.4764 222.396 63.1994 207.463C73.5706 192.53 81.6731 174.351 87.5069 152.925L67.0886 147.082C46.3463 140.59 29.8172 130.851 17.5014 117.866C5.8338 104.881 0 88.9739 0 70.1455C0 49.3694 6.80609 32.8134 20.4183 20.4776C34.0305 7.49253 50.2355 1 69.0332 1ZM273.216 1C296.551 1 315.349 9.44029 329.609 26.3209C343.87 42.5522 351 64.6269 351 92.5448C351 128.254 340.629 161.69 319.886 192.854C299.144 224.019 273.54 247.067 243.075 262L233.352 245.444C246.316 235.056 257.659 222.396 267.382 207.463C277.753 192.53 285.856 174.351 291.69 152.925L271.271 147.082C250.529 140.59 234 130.851 221.684 117.866C210.017 104.881 204.183 88.9739 204.183 70.1455C204.183 49.3694 210.989 32.8134 224.601 20.4776C238.213 7.49253 254.418 1 273.216 1Z" fill="#3A051F"/>
</svg>
